<svg width="500" height="500" viewBox="0 0 500 500" fill="none" xmlns="http://www.w3.org/2000/svg">
<g clip-path="url(#clip0_1157_17)">
<path d="M497.062 185.974C488.245 147.376 462.394 120.403 439.297 125.687C421.068 129.869 310.314 201 264.625 230.73C303.701 192.775 397.695 100.553 405.823 83.6889C416.108 62.3221 395.537 31.1219 359.951 13.9365C324.318 -3.20294 287.125 0.197378 276.839 21.5183C268.712 38.428 255.258 169.432 249.977 223.653C244.697 169.432 231.243 38.382 223.115 21.5183C212.83 0.197378 175.636 -3.20294 140.004 13.9365C104.372 31.0759 83.8465 62.3221 94.1321 83.6889C102.26 100.599 196.253 192.775 235.33 230.73C189.641 201.046 78.8873 129.869 60.6579 125.733C37.5612 120.449 11.7094 147.468 2.8932 186.02C-5.92303 224.618 5.6942 260.138 28.7909 265.422C47.0203 269.604 177.657 253.567 231.702 246.628C180.044 263.86 55.3774 306.134 40.7295 317.805C22.2246 332.601 27.1838 369.637 51.8417 400.562C76.4996 431.486 111.489 444.582 129.994 429.786C144.642 418.115 213.565 305.904 241.804 259.357C223.07 310.499 178.345 434.381 178.345 453.129C178.345 476.839 210.396 496.046 249.931 496.046C289.467 496.046 321.517 476.839 321.517 453.129C321.517 434.381 276.839 310.545 258.059 259.357C286.344 305.95 355.267 418.115 369.869 429.786C388.374 444.582 423.363 431.44 448.021 400.562C472.679 369.683 477.638 332.601 459.133 317.805C444.486 306.134 319.864 263.86 268.161 246.628C322.206 253.521 452.797 269.558 471.072 265.422C494.261 260.138 505.832 224.572 497.016 186.02L497.062 185.974Z" fill="#EF4444"/>
</g>
<defs>
<clipPath id="clip0_1157_17">
<rect width="500" height="493" fill="white" transform="translate(0 3)"/>
</clipPath>
</defs>
</svg>
